<svg xmlns="http://www.w3.org/2000/svg" viewBox="0 0 200 200">
  <defs>
    <linearGradient id="calcGrad" x1="0%" y1="0%" x2="100%" y2="100%">
      <stop offset="0%" stop-color="#0A2540"/>
      <stop offset="100%" stop-color="#0F3460"/>
    </linearGradient>
    <linearGradient id="screenGrad" x1="0%" y1="0%" x2="0%" y2="100%">
      <stop offset="0%" stop-color="#C9A84C"/>
      <stop offset="100%" stop-color="#B8943E"/>
    </linearGradient>
  </defs>
  <!-- Calculator body -->
  <rect x="40" y="20" width="120" height="165" rx="12" fill="url(#calcGrad)"/>
  <!-- Screen/display -->
  <rect x="52" y="32" width="96" height="40" rx="6" fill="url(#screenGrad)"/>
  <!-- Display text -->
  <text x="140" y="60" font-family="'Courier New', monospace" font-weight="700" font-size="20" fill="#0A2540" text-anchor="end">12,450</text>
  <!-- Button grid row 1 -->
  <rect x="55" y="84" width="20" height="18" rx="4" fill="#FFFFFF" opacity="0.15"/>
  <rect x="81" y="84" width="20" height="18" rx="4" fill="#FFFFFF" opacity="0.15"/>
  <rect x="107" y="84" width="20" height="18" rx="4" fill="#FFFFFF" opacity="0.15"/>
  <rect x="133" y="84" width="13" height="18" rx="4" fill="#C9A84C" opacity="0.6"/>
  <!-- Button grid row 2 -->
  <rect x="55" y="108" width="20" height="18" rx="4" fill="#FFFFFF" opacity="0.15"/>
  <rect x="81" y="108" width="20" height="18" rx="4" fill="#FFFFFF" opacity="0.15"/>
  <rect x="107" y="108" width="20" height="18" rx="4" fill="#FFFFFF" opacity="0.15"/>
  <rect x="133" y="108" width="13" height="18" rx="4" fill="#C9A84C" opacity="0.6"/>
  <!-- Button grid row 3 -->
  <rect x="55" y="132" width="20" height="18" rx="4" fill="#FFFFFF" opacity="0.15"/>
  <rect x="81" y="132" width="20" height="18" rx="4" fill="#FFFFFF" opacity="0.15"/>
  <rect x="107" y="132" width="20" height="18" rx="4" fill="#FFFFFF" opacity="0.15"/>
  <rect x="133" y="132" width="13" height="18" rx="4" fill="#C9A84C" opacity="0.6"/>
  <!-- Button grid row 4 -->
  <rect x="55" y="156" width="46" height="18" rx="4" fill="#FFFFFF" opacity="0.15"/>
  <rect x="107" y="156" width="20" height="18" rx="4" fill="#FFFFFF" opacity="0.15"/>
  <rect x="133" y="156" width="13" height="18" rx="4" fill="#C9A84C" opacity="0.8"/>
  <!-- Button labels -->
  <text x="65" y="97" font-family="Arial, sans-serif" font-size="10" fill="#FFFFFF" text-anchor="middle" opacity="0.7">7</text>
  <text x="91" y="97" font-family="Arial, sans-serif" font-size="10" fill="#FFFFFF" text-anchor="middle" opacity="0.7">8</text>
  <text x="117" y="97" font-family="Arial, sans-serif" font-size="10" fill="#FFFFFF" text-anchor="middle" opacity="0.7">9</text>
  <text x="65" y="121" font-family="Arial, sans-serif" font-size="10" fill="#FFFFFF" text-anchor="middle" opacity="0.7">4</text>
  <text x="91" y="121" font-family="Arial, sans-serif" font-size="10" fill="#FFFFFF" text-anchor="middle" opacity="0.7">5</text>
  <text x="117" y="121" font-family="Arial, sans-serif" font-size="10" fill="#FFFFFF" text-anchor="middle" opacity="0.7">6</text>
  <text x="65" y="145" font-family="Arial, sans-serif" font-size="10" fill="#FFFFFF" text-anchor="middle" opacity="0.7">1</text>
  <text x="91" y="145" font-family="Arial, sans-serif" font-size="10" fill="#FFFFFF" text-anchor="middle" opacity="0.7">2</text>
  <text x="117" y="145" font-family="Arial, sans-serif" font-size="10" fill="#FFFFFF" text-anchor="middle" opacity="0.7">3</text>
  <text x="78" y="169" font-family="Arial, sans-serif" font-size="10" fill="#FFFFFF" text-anchor="middle" opacity="0.7">0</text>
  <text x="117" y="169" font-family="Arial, sans-serif" font-size="10" fill="#FFFFFF" text-anchor="middle" opacity="0.7">.</text>
  <text x="139" y="169" font-family="Arial, sans-serif" font-size="10" fill="#0A2540" text-anchor="middle" font-weight="700">=</text>
</svg>
